<mxfile host="app.diagrams.net" modified="2024-04-22T04:55:14.936Z" agent="Mozilla/5.0 (Macintosh; Intel Mac OS X 10_15_7) AppleWebKit/605.1.15 (KHTML, like Gecko) Version/17.0 Safari/605.1.15" etag="QNHOlij6w6PvQOXOI05q" version="24.2.7" type="github">
  <diagram name="Seite-1" id="m-EhCa0xT_m6nLG5fBh4">
    <mxGraphModel dx="1759" dy="871" grid="1" gridSize="10" guides="1" tooltips="1" connect="1" arrows="1" fold="1" page="1" pageScale="1" pageWidth="1169" pageHeight="827" math="0" shadow="0">
      <root>
        <mxCell id="0" />
        <mxCell id="1" parent="0" />
      </root>
    </mxGraphModel>
  </diagram>
</mxfile>
